<svg width="40" height="40" viewBox="0 0 40 40" fill="none" xmlns="http://www.w3.org/2000/svg">
<rect width="40" height="40" rx="2" fill="#434B50"/>
<path d="M32.6614 27.3106H30.7215C30.5343 27.3106 30.3827 27.1589 30.3827 26.9718V24.4731H9.77811V26.9718C9.77811 27.1589 9.62649 27.3106 9.43937 27.3106H7.33874C7.15162 27.3106 7 27.1589 7 26.9718V11.3387C7 11.1516 7.15162 11 7.33874 11H9.43937C9.62649 11 9.77811 11.1516 9.77811 11.3387V15.9847C10.0289 15.8123 10.3322 15.7113 10.6588 15.7113H14.8586C15.7178 15.7113 16.4168 16.4103 16.4168 17.2695V17.7215C16.4168 18.0481 16.3159 18.3514 16.1434 18.6022H30.3826V15.5148C30.3826 15.3277 30.5342 15.176 30.7213 15.176H32.6613C32.8484 15.176 33 15.3277 33 15.5148V26.9719C33.0001 27.1589 32.8485 27.3106 32.6614 27.3106ZM31.0601 26.6331H32.3225V15.8535H31.0601V26.6331ZM7.67749 26.6331H9.10062V11.6775H7.67749V26.6331ZM9.77811 23.7956H30.3826V22.5993H9.77811V23.7956ZM9.77811 21.9218H30.3826V19.2799H9.77811V21.9218ZM10.6588 18.6024H14.8586C15.3442 18.6024 15.7393 18.2073 15.7393 17.7216V17.2696C15.7393 16.784 15.3442 16.3889 14.8586 16.3889H10.6588C10.1732 16.3889 9.77811 16.784 9.77811 17.2696V17.7216C9.77811 18.2073 10.1732 18.6024 10.6588 18.6024Z" fill="#E2B359"/>
</svg>
