<svg width="116" height="30" viewBox="0 0 116 30" fill="none" xmlns="http://www.w3.org/2000/svg">
<path d="M30.7654 8.25156H25.8322V20.6288H30.7654C35.1858 20.6288 37.2369 18.0473 37.2369 14.4402C37.2369 10.8331 35.1858 8.25156 30.7654 8.25156ZM33.8774 14.4402C33.8774 16.7565 32.7281 17.7997 30.7654 17.7997H29.1033V11.0806H30.7654C32.7281 11.0806 33.8774 12.1239 33.8774 14.4402Z" fill="#FAFAFA"/>
<path d="M42.2611 8.25156H38.9899V20.6288H47.9192V17.7113H42.2611V8.25156Z" fill="#FAFAFA"/>
<path d="M49.3158 20.6288H52.587V15.8547H54.1253L57.1312 20.6288H60.756L56.6891 14.2811L60.5791 8.25156H56.9544L54.143 12.9372H52.587V8.25156H49.3158V20.6288Z" fill="#FAFAFA"/>
<path d="M64.8769 14.4402C64.8769 18.9314 68.2188 20.8941 71.7375 20.8941C73.1343 20.8941 74.5666 20.5935 75.8397 20.063V13.8213H72.7453V17.9942C72.5332 18.0473 72.2503 18.0827 71.8966 18.0827C70.4821 18.0827 68.2365 17.4991 68.2365 14.4402C68.2365 11.894 70.1284 10.8685 72.1265 10.8685C73.3642 10.8685 74.6196 11.2221 75.5391 11.8586V8.76433C74.3721 8.26924 73.0283 7.98633 71.7021 7.98633C68.2542 7.98633 64.8769 9.82524 64.8769 14.4402Z" fill="#FAFAFA"/>
<path d="M80.1423 13.2909V12.1416H77.49V20.6288H80.4959V15.8017C81.0264 14.9883 82.2818 14.617 83.4665 14.8822V11.9647C81.8044 11.7879 80.7258 12.4421 80.1423 13.2909Z" fill="#FAFAFA"/>
<path d="M84.0762 16.3852C84.0762 19.3911 86.3041 20.8941 88.8503 20.8941C91.3965 20.8941 93.6244 19.3911 93.6244 16.3852C93.6244 13.3793 91.3965 11.8763 88.8503 11.8763C86.3041 11.8763 84.0762 13.3793 84.0762 16.3852ZM90.5301 16.3852C90.5301 17.34 90.088 18.2418 88.8503 18.2418C87.6126 18.2418 87.1705 17.34 87.1705 16.3852C87.1705 15.4304 87.6126 14.5286 88.8503 14.5286C90.088 14.5286 90.5301 15.4304 90.5301 16.3852Z" fill="#FAFAFA"/>
<path d="M103.663 12.1416H100.657V17.5876C100.392 17.9235 99.8793 18.3302 99.2074 18.3302C98.4648 18.3302 97.9167 17.9058 97.9167 17.0041V12.1416H94.9108V17.4107C94.9108 19.3204 95.9717 20.8941 98.3057 20.8941C99.4373 20.8941 100.304 20.4166 101.011 19.6563V20.6288H103.663V12.1416Z" fill="#FAFAFA"/>
<path d="M108.115 13.2909V12.1416H105.463V24.5188H108.469V19.9392C108.982 20.4697 109.813 20.8941 110.998 20.8941C113.844 20.8941 115.1 18.5777 115.1 16.3852C115.1 14.1926 113.844 11.8763 110.998 11.8763C109.477 11.8763 108.54 12.5836 108.115 13.2909ZM112.005 16.3852C112.005 17.3754 111.457 18.4186 110.184 18.4186C109.353 18.4186 108.734 17.9058 108.469 17.3577V15.4127C108.734 14.8646 109.353 14.3518 110.184 14.3518C111.457 14.3518 112.005 15.395 112.005 16.3852Z" fill="#FAFAFA"/>
<path d="M3.92547 18.5237L0.948731 18.5237L0.94873 23.4878C0.94873 27.9359 3.67077 29.9999 7.47416 29.9999C11.2776 29.9999 13.9996 27.9359 13.9996 23.4878L13.9996 18.5237L6.20302 18.5237V21.8153L11.0165 21.8153L11.0165 23.4878C11.0165 25.4628 9.91654 26.6193 7.47417 26.6193C5.03179 26.6193 3.93179 25.4628 3.93179 23.4878V22.8429H3.92547V18.5237Z" fill="#E2B359"/>
<path d="M13.9996 16.8398L0.94873 16.8398L0.948731 13.4718L13.9996 13.4718V16.8398Z" fill="#E2B359"/>
<path d="M7.47413 -1.23862e-06C2.34721 -2.10056e-06 1.0779e-05 3.65733 1.00788e-05 7.50817C9.80083e-06 9.03689 0.343149 10.3946 0.948691 11.7879L8.18059 11.7879L8.18059 8.40146L3.31031 8.40146C3.24975 8.16925 3.20938 8.06934 3.20938 7.68232C3.20938 6.13425 3.98217 3.67668 7.47413 3.67668C10.3807 3.67668 11.5514 5.74723 11.5514 7.93389C11.5514 9.28845 11.1477 10.7816 10.4211 11.7879L13.9534 11.7879C14.5186 10.5107 14.8416 8.92079 14.8416 7.46947C14.8416 3.69603 12.7423 -3.52921e-07 7.47413 -1.23862e-06Z" fill="#E2B359"/>
</svg>
