<svg width="30" height="30" viewBox="0 0 30 30" fill="none" xmlns="http://www.w3.org/2000/svg">
<rect width="28" height="28" rx="2" fill="#054B4B"/>
<path d="M14.5019 6H14.4981C10.3628 6 7 9.36375 7 13.5C7 15.1406 7.52875 16.6613 8.42781 17.8959L7.49313 20.6822L10.3759 19.7606C11.5619 20.5463 12.9766 21 14.5019 21C18.6372 21 22 17.6353 22 13.5C22 9.36469 18.6372 6 14.5019 6Z" fill="#FAFAFA"/>
<path d="M18.8663 16.5909C18.6853 17.1018 17.9672 17.5256 17.3944 17.6493C17.0025 17.7327 16.4906 17.7993 14.7675 17.0849C12.5634 16.1718 11.1441 13.9321 11.0334 13.7868C10.9275 13.6415 10.1428 12.6009 10.1428 11.5246C10.1428 10.4484 10.6894 9.9243 10.9097 9.6993C11.0906 9.51461 11.3897 9.43024 11.6766 9.43024C11.7694 9.43024 11.8528 9.43492 11.9278 9.43867C12.1481 9.44805 12.2588 9.46117 12.4041 9.80899C12.585 10.2449 13.0256 11.3212 13.0781 11.4318C13.1316 11.5424 13.185 11.6924 13.11 11.8377C13.0397 11.9877 12.9778 12.0543 12.8672 12.1818C12.7566 12.3093 12.6516 12.4068 12.5409 12.5437C12.4397 12.6627 12.3253 12.7902 12.4528 13.0106C12.5803 13.2262 13.0209 13.9452 13.6697 14.5227C14.5069 15.2681 15.1856 15.5062 15.4284 15.6074C15.6094 15.6824 15.825 15.6646 15.9572 15.524C16.125 15.3431 16.3322 15.0431 16.5431 14.7477C16.6931 14.5359 16.8825 14.5096 17.0813 14.5846C17.2838 14.6549 18.3553 15.1846 18.5756 15.2943C18.7959 15.4049 18.9413 15.4574 18.9947 15.5502C19.0472 15.6431 19.0472 16.079 18.8663 16.5909Z" fill="#054B4B"/>
</svg>
